#define _width 3
#define _height 3
static char _bits[] = {
 0x01,0x02,0x04 };
