#define _width 8
#define _height 3
static char _bits[] = {
 0x00,0xff,0x00 };
