#define _width 2
#define _height 2
static char _bits[] = {
 0x02,0x01 };
