#define _width 2
#define _height 8
static char _bits[] = {
 0x02,0x02,0x02,0x02,0x02,0x02,0x02,0x02 };
